<svg xmlns="http://www.w3.org/2000/svg" viewBox="0 0 1492 1142" width="1492" height="1142" font-family="'Segoe UI','Helvetica Neue',Arial,sans-serif">
<rect x="0" y="0" width="1492" height="1142" fill="#f8fafc"/>
<text x="42" y="66" font-family="'Segoe UI','Helvetica Neue',Arial,sans-serif" font-size="30" font-weight="800" fill="#0f172a">Narrative Feature Annotation Map</text>
<text x="42" y="98" font-family="'Segoe UI','Helvetica Neue',Arial,sans-serif" font-size="15.5" fill="#475569">103 computational annotation channels across six feature classes, on a shared 1&#8202;Hz time grid.</text>
<text x="42" y="122" font-family="'Segoe UI','Helvetica Neue',Arial,sans-serif" font-size="12.5" fill="#94a3b8">Each chip is one channel (a value series + provenance); a number in parentheses is how many levels/dimensions it carries (e.g. action category (400) = 400 action types). Generated from schema/channel_template.json.</text>
<g transform="translate(42,168)"><rect x="0" y="0" width="452" height="750" rx="16" fill="#ffffff" stroke="#e5e7eb" stroke-width="1"/><path d="M0,58 V16 Q0,0 16,0 H436 Q452,0 452,16 V58 Z" fill="#6366f1"/><text x="16" y="26" font-family="'Segoe UI','Helvetica Neue',Arial,sans-serif" font-size="18" font-weight="700" fill="#ffffff">VISUAL</text><text x="436" y="26" text-anchor="end" font-family="'Segoe UI','Helvetica Neue',Arial,sans-serif" font-size="13" font-weight="600" fill="#ffffff" opacity="0.92">37 channels</text><text x="16" y="44" font-family="'Segoe UI','Helvetica Neue',Arial,sans-serif" font-size="12.5" fill="#ffffff" opacity="0.9">What the frame looks like</text><text x="16" y="84" font-family="'Segoe UI','Helvetica Neue',Arial,sans-serif" font-size="11.5" font-weight="700" letter-spacing="0.6" fill="#5457cd">LOW-LEVEL STATIC</text><g><rect x="16" y="96" width="87" height="26" rx="7" fill="#e9eafd" stroke="#c1c2f9" stroke-width="1"/><text x="59.5" y="113.0" text-anchor="middle" font-family="'Segoe UI','Helvetica Neue',Arial,sans-serif" font-size="12.5" fill="#363885">blue level</text></g><g><rect x="111" y="96" width="100" height="26" rx="7" fill="#e9eafd" stroke="#c1c2f9" stroke-width="1"/><text x="161.0" y="113.0" text-anchor="middle" font-family="'Segoe UI','Helvetica Neue',Arial,sans-serif" font-size="12.5" fill="#363885">colorfulness</text></g><g><rect x="219" y="96" width="100" height="26" rx="7" fill="#e9eafd" stroke="#c1c2f9" stroke-width="1"/><text x="269.0" y="113.0" text-anchor="middle" font-family="'Segoe UI','Helvetica Neue',Arial,sans-serif" font-size="12.5" fill="#363885">edge density</text></g><g><rect x="327" y="96" width="107" height="26" rx="7" fill="#e9eafd" stroke="#c1c2f9" stroke-width="1"/><text x="380.5" y="113.0" text-anchor="middle" font-family="'Segoe UI','Helvetica Neue',Arial,sans-serif" font-size="12.5" fill="#363885">image entropy</text></g><g><rect x="16" y="130" width="174" height="26" rx="7" fill="#e9eafd" stroke="#c1c2f9" stroke-width="1"/><text x="103.0" y="147.0" text-anchor="middle" font-family="'Segoe UI','Helvetica Neue',Arial,sans-serif" font-size="12.5" fill="#363885">spatial-frequency slope</text></g><g><rect x="198" y="130" width="94" height="26" rx="7" fill="#e9eafd" stroke="#c1c2f9" stroke-width="1"/><text x="245.0" y="147.0" text-anchor="middle" font-family="'Segoe UI','Helvetica Neue',Arial,sans-serif" font-size="12.5" fill="#363885">green level</text></g><g><rect x="300" y="130" width="46" height="26" rx="7" fill="#e9eafd" stroke="#c1c2f9" stroke-width="1"/><text x="323.0" y="147.0" text-anchor="middle" font-family="'Segoe UI','Helvetica Neue',Arial,sans-serif" font-size="12.5" fill="#363885">hue</text></g><g><rect x="354" y="130" width="80" height="26" rx="7" fill="#e9eafd" stroke="#c1c2f9" stroke-width="1"/><text x="394.0" y="147.0" text-anchor="middle" font-family="'Segoe UI','Helvetica Neue',Arial,sans-serif" font-size="12.5" fill="#363885">luminance</text></g><g><rect x="16" y="164" width="80" height="26" rx="7" fill="#e9eafd" stroke="#c1c2f9" stroke-width="1"/><text x="56.0" y="181.0" text-anchor="middle" font-family="'Segoe UI','Helvetica Neue',Arial,sans-serif" font-size="12.5" fill="#363885">red level</text></g><g><rect x="104" y="164" width="100" height="26" rx="7" fill="#e9eafd" stroke="#c1c2f9" stroke-width="1"/><text x="154.0" y="181.0" text-anchor="middle" font-family="'Segoe UI','Helvetica Neue',Arial,sans-serif" font-size="12.5" fill="#363885">RMS contrast</text></g><g><rect x="212" y="164" width="87" height="26" rx="7" fill="#e9eafd" stroke="#c1c2f9" stroke-width="1"/><text x="255.5" y="181.0" text-anchor="middle" font-family="'Segoe UI','Helvetica Neue',Arial,sans-serif" font-size="12.5" fill="#363885">saturation</text></g><g><rect x="307" y="164" width="87" height="26" rx="7" fill="#e9eafd" stroke="#c1c2f9" stroke-width="1"/><text x="350.5" y="181.0" text-anchor="middle" font-family="'Segoe UI','Helvetica Neue',Arial,sans-serif" font-size="12.5" fill="#363885">brightness</text></g><text x="16" y="218" font-family="'Segoe UI','Helvetica Neue',Arial,sans-serif" font-size="11.5" font-weight="700" letter-spacing="0.6" fill="#5457cd">SALIENCY / DEPTH</text><g><rect x="16" y="230" width="127" height="26" rx="7" fill="#e9eafd" stroke="#c1c2f9" stroke-width="1"/><text x="79.5" y="247.0" text-anchor="middle" font-family="'Segoe UI','Helvetica Neue',Arial,sans-serif" font-size="12.5" fill="#363885">depth complexity</text></g><g><rect x="151" y="230" width="100" height="26" rx="7" fill="#e9eafd" stroke="#c1c2f9" stroke-width="1"/><text x="201.0" y="247.0" text-anchor="middle" font-family="'Segoe UI','Helvetica Neue',Arial,sans-serif" font-size="12.5" fill="#363885">depth (mean)</text></g><g><rect x="259" y="230" width="94" height="26" rx="7" fill="#e9eafd" stroke="#c1c2f9" stroke-width="1"/><text x="306.0" y="247.0" text-anchor="middle" font-family="'Segoe UI','Helvetica Neue',Arial,sans-serif" font-size="12.5" fill="#363885">depth range</text></g><g><rect x="16" y="264" width="147" height="26" rx="7" fill="#e9eafd" stroke="#c1c2f9" stroke-width="1"/><text x="89.5" y="281.0" text-anchor="middle" font-family="'Segoe UI','Helvetica Neue',Arial,sans-serif" font-size="12.5" fill="#363885">foreground fraction</text></g><g><rect x="171" y="264" width="120" height="26" rx="7" fill="#e9eafd" stroke="#c1c2f9" stroke-width="1"/><text x="231.0" y="281.0" text-anchor="middle" font-family="'Segoe UI','Helvetica Neue',Arial,sans-serif" font-size="12.5" fill="#363885">saliency spread</text></g><g><rect x="299" y="264" width="120" height="26" rx="7" fill="#e9eafd" stroke="#c1c2f9" stroke-width="1"/><text x="359.0" y="281.0" text-anchor="middle" font-family="'Segoe UI','Helvetica Neue',Arial,sans-serif" font-size="12.5" fill="#363885">saliency (mean)</text></g><g><rect x="16" y="298" width="107" height="26" rx="7" fill="#e9eafd" stroke="#c1c2f9" stroke-width="1"/><text x="69.5" y="315.0" text-anchor="middle" font-family="'Segoe UI','Helvetica Neue',Arial,sans-serif" font-size="12.5" fill="#363885">saliency peak</text></g><g><rect x="131" y="298" width="100" height="26" rx="7" fill="#e9eafd" stroke="#c1c2f9" stroke-width="1"/><text x="181.0" y="315.0" text-anchor="middle" font-family="'Segoe UI','Helvetica Neue',Arial,sans-serif" font-size="12.5" fill="#363885">salient area</text></g><text x="16" y="352" font-family="'Segoe UI','Helvetica Neue',Arial,sans-serif" font-size="11.5" font-weight="700" letter-spacing="0.6" fill="#5457cd">FACES / BODIES / GAZE</text><g><rect x="16" y="364" width="120" height="26" rx="7" fill="#e9eafd" stroke="#c1c2f9" stroke-width="1"/><text x="76.0" y="381.0" text-anchor="middle" font-family="'Segoe UI','Helvetica Neue',Arial,sans-serif" font-size="12.5" fill="#363885">face confidence</text></g><g><rect x="144" y="364" width="107" height="26" rx="7" fill="#e9eafd" stroke="#c1c2f9" stroke-width="1"/><text x="197.5" y="381.0" text-anchor="middle" font-family="'Segoe UI','Helvetica Neue',Arial,sans-serif" font-size="12.5" fill="#363885">face present?</text></g><g><rect x="259" y="364" width="134" height="26" rx="7" fill="#e9eafd" stroke="#c1c2f9" stroke-width="1"/><text x="326.0" y="381.0" text-anchor="middle" font-family="'Segoe UI','Helvetica Neue',Arial,sans-serif" font-size="12.5" fill="#363885">largest-face size</text></g><g><rect x="16" y="398" width="120" height="26" rx="7" fill="#e9eafd" stroke="#c1c2f9" stroke-width="1"/><text x="76.0" y="415.0" text-anchor="middle" font-family="'Segoe UI','Helvetica Neue',Arial,sans-serif" font-size="12.5" fill="#363885">pose confidence</text></g><g><rect x="144" y="398" width="87" height="26" rx="7" fill="#e9eafd" stroke="#c1c2f9" stroke-width="1"/><text x="187.5" y="415.0" text-anchor="middle" font-family="'Segoe UI','Helvetica Neue',Arial,sans-serif" font-size="12.5" fill="#363885">face count</text></g><g><rect x="239" y="398" width="100" height="26" rx="7" fill="#e9eafd" stroke="#c1c2f9" stroke-width="1"/><text x="289.0" y="415.0" text-anchor="middle" font-family="'Segoe UI','Helvetica Neue',Arial,sans-serif" font-size="12.5" fill="#363885">person count</text></g><g><rect x="16" y="432" width="107" height="26" rx="7" fill="#e9eafd" stroke="#c1c2f9" stroke-width="1"/><text x="69.5" y="449.0" text-anchor="middle" font-family="'Segoe UI','Helvetica Neue',Arial,sans-serif" font-size="12.5" fill="#363885">body present?</text></g><text x="16" y="486" font-family="'Segoe UI','Helvetica Neue',Arial,sans-serif" font-size="11.5" font-weight="700" letter-spacing="0.6" fill="#5457cd">MOTION</text><g><rect x="16" y="498" width="107" height="26" rx="7" fill="#e9eafd" stroke="#c1c2f9" stroke-width="1"/><text x="69.5" y="515.0" text-anchor="middle" font-family="'Segoe UI','Helvetica Neue',Arial,sans-serif" font-size="12.5" fill="#363885">camera motion</text></g><g><rect x="131" y="498" width="74" height="26" rx="7" fill="#e9eafd" stroke="#c1c2f9" stroke-width="1"/><text x="168.0" y="515.0" text-anchor="middle" font-family="'Segoe UI','Helvetica Neue',Arial,sans-serif" font-size="12.5" fill="#363885">shot cut</text></g><g><rect x="213" y="498" width="167" height="26" rx="7" fill="#e9eafd" stroke="#c1c2f9" stroke-width="1"/><text x="296.5" y="515.0" text-anchor="middle" font-family="'Segoe UI','Helvetica Neue',Arial,sans-serif" font-size="12.5" fill="#363885">optical-flow magnitude</text></g><g><rect x="16" y="532" width="107" height="26" rx="7" fill="#e9eafd" stroke="#c1c2f9" stroke-width="1"/><text x="69.5" y="549.0" text-anchor="middle" font-family="'Segoe UI','Helvetica Neue',Arial,sans-serif" font-size="12.5" fill="#363885">object motion</text></g><g><rect x="131" y="532" width="94" height="26" rx="7" fill="#e9eafd" stroke="#c1c2f9" stroke-width="1"/><text x="178.0" y="549.0" text-anchor="middle" font-family="'Segoe UI','Helvetica Neue',Arial,sans-serif" font-size="12.5" fill="#363885">shot number</text></g><text x="16" y="586" font-family="'Segoe UI','Helvetica Neue',Arial,sans-serif" font-size="11.5" font-weight="700" letter-spacing="0.6" fill="#5457cd">HIGH-LEVEL SEMANTICS</text><g><rect x="16" y="598" width="167" height="26" rx="7" fill="#e9eafd" stroke="#c1c2f9" stroke-width="1"/><text x="99.5" y="615.0" text-anchor="middle" font-family="'Segoe UI','Helvetica Neue',Arial,sans-serif" font-size="12.5" fill="#363885">DINOv2 embedding (384)</text></g><g><rect x="191" y="598" width="167" height="26" rx="7" fill="#e9eafd" stroke="#c1c2f9" stroke-width="1"/><text x="274.5" y="615.0" text-anchor="middle" font-family="'Segoe UI','Helvetica Neue',Arial,sans-serif" font-size="12.5" fill="#363885">SigLIP embedding (768)</text></g><g><rect x="16" y="632" width="181" height="26" rx="7" fill="#e9eafd" stroke="#c1c2f9" stroke-width="1"/><text x="106.5" y="649.0" text-anchor="middle" font-family="'Segoe UI','Helvetica Neue',Arial,sans-serif" font-size="12.5" fill="#363885">SigLIP scene probes (16)</text></g><text x="16" y="686" font-family="'Segoe UI','Helvetica Neue',Arial,sans-serif" font-size="11.5" font-weight="700" letter-spacing="0.6" fill="#5457cd">ACTION</text><g><rect x="16" y="698" width="194" height="26" rx="7" fill="#e9eafd" stroke="#c1c2f9" stroke-width="1"/><text x="113.0" y="715.0" text-anchor="middle" font-family="'Segoe UI','Helvetica Neue',Arial,sans-serif" font-size="12.5" fill="#363885">action probabilities (400)</text></g><g><rect x="218" y="698" width="161" height="26" rx="7" fill="#e9eafd" stroke="#c1c2f9" stroke-width="1"/><text x="298.5" y="715.0" text-anchor="middle" font-family="'Segoe UI','Helvetica Neue',Arial,sans-serif" font-size="12.5" fill="#363885">action category (400)</text></g></g>
<g transform="translate(520,168)"><rect x="0" y="0" width="452" height="550" rx="16" fill="#ffffff" stroke="#e5e7eb" stroke-width="1"/><path d="M0,58 V16 Q0,0 16,0 H436 Q452,0 452,16 V58 Z" fill="#f59e0b"/><text x="16" y="26" font-family="'Segoe UI','Helvetica Neue',Arial,sans-serif" font-size="18" font-weight="700" fill="#ffffff">LANGUAGE</text><text x="436" y="26" text-anchor="end" font-family="'Segoe UI','Helvetica Neue',Arial,sans-serif" font-size="13" font-weight="600" fill="#ffffff" opacity="0.92">22 channels</text><text x="16" y="44" font-family="'Segoe UI','Helvetica Neue',Arial,sans-serif" font-size="12.5" fill="#ffffff" opacity="0.9">What is said (from the transcript)</text><text x="16" y="84" font-family="'Segoe UI','Helvetica Neue',Arial,sans-serif" font-size="11.5" font-weight="700" letter-spacing="0.6" fill="#d08609">LEXICAL</text><g><rect x="16" y="96" width="141" height="26" rx="7" fill="#fef1dd" stroke="#fbd89d" stroke-width="1"/><text x="86.5" y="113.0" text-anchor="middle" font-family="'Segoe UI','Helvetica Neue',Arial,sans-serif" font-size="12.5" fill="#875706">age of acquisition</text></g><g><rect x="165" y="96" width="100" height="26" rx="7" fill="#fef1dd" stroke="#fbd89d" stroke-width="1"/><text x="215.0" y="113.0" text-anchor="middle" font-family="'Segoe UI','Helvetica Neue',Arial,sans-serif" font-size="12.5" fill="#875706">word arousal</text></g><g><rect x="273" y="96" width="134" height="26" rx="7" fill="#fef1dd" stroke="#fbd89d" stroke-width="1"/><text x="340.0" y="113.0" text-anchor="middle" font-family="'Segoe UI','Helvetica Neue',Arial,sans-serif" font-size="12.5" fill="#875706">word concreteness</text></g><g><rect x="16" y="130" width="114" height="26" rx="7" fill="#fef1dd" stroke="#fbd89d" stroke-width="1"/><text x="73.0" y="147.0" text-anchor="middle" font-family="'Segoe UI','Helvetica Neue',Arial,sans-serif" font-size="12.5" fill="#875706">word dominance</text></g><g><rect x="138" y="130" width="134" height="26" rx="7" fill="#fef1dd" stroke="#fbd89d" stroke-width="1"/><text x="205.0" y="147.0" text-anchor="middle" font-family="'Segoe UI','Helvetica Neue',Arial,sans-serif" font-size="12.5" fill="#875706">next-word entropy</text></g><g><rect x="280" y="130" width="114" height="26" rx="7" fill="#fef1dd" stroke="#fbd89d" stroke-width="1"/><text x="337.0" y="147.0" text-anchor="middle" font-family="'Segoe UI','Helvetica Neue',Arial,sans-serif" font-size="12.5" fill="#875706">word frequency</text></g><g><rect x="16" y="164" width="114" height="26" rx="7" fill="#fef1dd" stroke="#fbd89d" stroke-width="1"/><text x="73.0" y="181.0" text-anchor="middle" font-family="'Segoe UI','Helvetica Neue',Arial,sans-serif" font-size="12.5" fill="#875706">word surprisal</text></g><g><rect x="138" y="164" width="100" height="26" rx="7" fill="#fef1dd" stroke="#fbd89d" stroke-width="1"/><text x="188.0" y="181.0" text-anchor="middle" font-family="'Segoe UI','Helvetica Neue',Arial,sans-serif" font-size="12.5" fill="#875706">word valence</text></g><g><rect x="246" y="164" width="94" height="26" rx="7" fill="#fef1dd" stroke="#fbd89d" stroke-width="1"/><text x="293.0" y="181.0" text-anchor="middle" font-family="'Segoe UI','Helvetica Neue',Arial,sans-serif" font-size="12.5" fill="#875706">word length</text></g><text x="16" y="218" font-family="'Segoe UI','Helvetica Neue',Arial,sans-serif" font-size="11.5" font-weight="700" letter-spacing="0.6" fill="#d08609">SEMANTIC / NARRATIVE</text><g><rect x="16" y="230" width="167" height="26" rx="7" fill="#fef1dd" stroke="#fbd89d" stroke-width="1"/><text x="99.5" y="247.0" text-anchor="middle" font-family="'Segoe UI','Helvetica Neue',Arial,sans-serif" font-size="12.5" fill="#875706">narrative expectedness</text></g><g><rect x="191" y="230" width="141" height="26" rx="7" fill="#fef1dd" stroke="#fbd89d" stroke-width="1"/><text x="261.5" y="247.0" text-anchor="middle" font-family="'Segoe UI','Helvetica Neue',Arial,sans-serif" font-size="12.5" fill="#875706">narrative surprise</text></g><g><rect x="16" y="264" width="141" height="26" rx="7" fill="#fef1dd" stroke="#fbd89d" stroke-width="1"/><text x="86.5" y="281.0" text-anchor="middle" font-family="'Segoe UI','Helvetica Neue',Arial,sans-serif" font-size="12.5" fill="#875706">semantic coherence</text></g><g><rect x="165" y="264" width="114" height="26" rx="7" fill="#fef1dd" stroke="#fbd89d" stroke-width="1"/><text x="222.0" y="281.0" text-anchor="middle" font-family="'Segoe UI','Helvetica Neue',Arial,sans-serif" font-size="12.5" fill="#875706">semantic drift</text></g><g><rect x="287" y="264" width="127" height="26" rx="7" fill="#fef1dd" stroke="#fbd89d" stroke-width="1"/><text x="350.5" y="281.0" text-anchor="middle" font-family="'Segoe UI','Helvetica Neue',Arial,sans-serif" font-size="12.5" fill="#875706">semantic novelty</text></g><g><rect x="16" y="298" width="134" height="26" rx="7" fill="#fef1dd" stroke="#fbd89d" stroke-width="1"/><text x="83.0" y="315.0" text-anchor="middle" font-family="'Segoe UI','Helvetica Neue',Arial,sans-serif" font-size="12.5" fill="#875706">semantic surprise</text></g><text x="16" y="352" font-family="'Segoe UI','Helvetica Neue',Arial,sans-serif" font-size="11.5" font-weight="700" letter-spacing="0.6" fill="#d08609">SYNTAX</text><g><rect x="16" y="364" width="161" height="26" rx="7" fill="#fef1dd" stroke="#fbd89d" stroke-width="1"/><text x="96.5" y="381.0" text-anchor="middle" font-family="'Segoe UI','Helvetica Neue',Arial,sans-serif" font-size="12.5" fill="#875706">content-word fraction</text></g><g><rect x="185" y="364" width="147" height="26" rx="7" fill="#fef1dd" stroke="#fbd89d" stroke-width="1"/><text x="258.5" y="381.0" text-anchor="middle" font-family="'Segoe UI','Helvetica Neue',Arial,sans-serif" font-size="12.5" fill="#875706">dependency distance</text></g><g><rect x="16" y="398" width="107" height="26" rx="7" fill="#fef1dd" stroke="#fbd89d" stroke-width="1"/><text x="69.5" y="415.0" text-anchor="middle" font-family="'Segoe UI','Helvetica Neue',Arial,sans-serif" font-size="12.5" fill="#875706">noun fraction</text></g><g><rect x="131" y="398" width="127" height="26" rx="7" fill="#fef1dd" stroke="#fbd89d" stroke-width="1"/><text x="194.5" y="415.0" text-anchor="middle" font-family="'Segoe UI','Helvetica Neue',Arial,sans-serif" font-size="12.5" fill="#875706">parse-tree depth</text></g><g><rect x="266" y="398" width="107" height="26" rx="7" fill="#fef1dd" stroke="#fbd89d" stroke-width="1"/><text x="319.5" y="415.0" text-anchor="middle" font-family="'Segoe UI','Helvetica Neue',Arial,sans-serif" font-size="12.5" fill="#875706">verb fraction</text></g><text x="16" y="452" font-family="'Segoe UI','Helvetica Neue',Arial,sans-serif" font-size="11.5" font-weight="700" letter-spacing="0.6" fill="#d08609">LLM EMBEDDINGS</text><g><rect x="16" y="464" width="214" height="26" rx="7" fill="#fef1dd" stroke="#fbd89d" stroke-width="1"/><text x="123.0" y="481.0" text-anchor="middle" font-family="'Segoe UI','Helvetica Neue',Arial,sans-serif" font-size="12.5" fill="#875706">Llama-3.1 AR embedding (4096)</text></g><g><rect x="16" y="498" width="228" height="26" rx="7" fill="#fef1dd" stroke="#fbd89d" stroke-width="1"/><text x="130.0" y="515.0" text-anchor="middle" font-family="'Segoe UI','Helvetica Neue',Arial,sans-serif" font-size="12.5" fill="#875706">Qwen3 sentence embedding (1024)</text></g></g>
<g transform="translate(998,168)"><rect x="0" y="0" width="452" height="450" rx="16" fill="#ffffff" stroke="#e5e7eb" stroke-width="1"/><path d="M0,58 V16 Q0,0 16,0 H436 Q452,0 452,16 V58 Z" fill="#06b6d4"/><text x="16" y="26" font-family="'Segoe UI','Helvetica Neue',Arial,sans-serif" font-size="18" font-weight="700" fill="#ffffff">AUDIO</text><text x="436" y="26" text-anchor="end" font-family="'Segoe UI','Helvetica Neue',Arial,sans-serif" font-size="13" font-weight="600" fill="#ffffff" opacity="0.92">21 channels</text><text x="16" y="44" font-family="'Segoe UI','Helvetica Neue',Arial,sans-serif" font-size="12.5" fill="#ffffff" opacity="0.9">What the soundtrack sounds like</text><text x="16" y="84" font-family="'Segoe UI','Helvetica Neue',Arial,sans-serif" font-size="11.5" font-weight="700" letter-spacing="0.6" fill="#059bb4">LOW-LEVEL ACOUSTICS</text><g><rect x="16" y="96" width="188" height="26" rx="7" fill="#dcf5f9" stroke="#9be2ee" stroke-width="1"/><text x="110.0" y="113.0" text-anchor="middle" font-family="'Segoe UI','Helvetica Neue',Arial,sans-serif" font-size="12.5" fill="#036475">chroma (pitch class) (12)</text></g><g><rect x="212" y="96" width="87" height="26" rx="7" fill="#dcf5f9" stroke="#9be2ee" stroke-width="1"/><text x="255.5" y="113.0" text-anchor="middle" font-family="'Segoe UI','Helvetica Neue',Arial,sans-serif" font-size="12.5" fill="#036475">pitch (F0)</text></g><g><rect x="307" y="96" width="127" height="26" rx="7" fill="#dcf5f9" stroke="#9be2ee" stroke-width="1"/><text x="370.5" y="113.0" text-anchor="middle" font-family="'Segoe UI','Helvetica Neue',Arial,sans-serif" font-size="12.5" fill="#036475">MFCC timbre (13)</text></g><g><rect x="16" y="130" width="114" height="26" rx="7" fill="#dcf5f9" stroke="#9be2ee" stroke-width="1"/><text x="73.0" y="147.0" text-anchor="middle" font-family="'Segoe UI','Helvetica Neue',Arial,sans-serif" font-size="12.5" fill="#036475">onset strength</text></g><g><rect x="138" y="130" width="114" height="26" rx="7" fill="#dcf5f9" stroke="#9be2ee" stroke-width="1"/><text x="195.0" y="147.0" text-anchor="middle" font-family="'Segoe UI','Helvetica Neue',Arial,sans-serif" font-size="12.5" fill="#036475">loudness (RMS)</text></g><g><rect x="260" y="130" width="141" height="26" rx="7" fill="#dcf5f9" stroke="#9be2ee" stroke-width="1"/><text x="330.5" y="147.0" text-anchor="middle" font-family="'Segoe UI','Helvetica Neue',Arial,sans-serif" font-size="12.5" fill="#036475">spectral bandwidth</text></g><g><rect x="16" y="164" width="134" height="26" rx="7" fill="#dcf5f9" stroke="#9be2ee" stroke-width="1"/><text x="83.0" y="181.0" text-anchor="middle" font-family="'Segoe UI','Helvetica Neue',Arial,sans-serif" font-size="12.5" fill="#036475">spectral centroid</text></g><g><rect x="158" y="164" width="134" height="26" rx="7" fill="#dcf5f9" stroke="#9be2ee" stroke-width="1"/><text x="225.0" y="181.0" text-anchor="middle" font-family="'Segoe UI','Helvetica Neue',Arial,sans-serif" font-size="12.5" fill="#036475">spectral flatness</text></g><g><rect x="300" y="164" width="127" height="26" rx="7" fill="#dcf5f9" stroke="#9be2ee" stroke-width="1"/><text x="363.5" y="181.0" text-anchor="middle" font-family="'Segoe UI','Helvetica Neue',Arial,sans-serif" font-size="12.5" fill="#036475">spectral rolloff</text></g><g><rect x="16" y="198" width="94" height="26" rx="7" fill="#dcf5f9" stroke="#9be2ee" stroke-width="1"/><text x="63.0" y="215.0" text-anchor="middle" font-family="'Segoe UI','Helvetica Neue',Arial,sans-serif" font-size="12.5" fill="#036475">tempo (BPM)</text></g><g><rect x="118" y="198" width="141" height="26" rx="7" fill="#dcf5f9" stroke="#9be2ee" stroke-width="1"/><text x="188.5" y="215.0" text-anchor="middle" font-family="'Segoe UI','Helvetica Neue',Arial,sans-serif" font-size="12.5" fill="#036475">zero-crossing rate</text></g><text x="16" y="252" font-family="'Segoe UI','Helvetica Neue',Arial,sans-serif" font-size="11.5" font-weight="700" letter-spacing="0.6" fill="#059bb4">SPEECH</text><g><rect x="16" y="264" width="127" height="26" rx="7" fill="#dcf5f9" stroke="#9be2ee" stroke-width="1"/><text x="79.5" y="281.0" text-anchor="middle" font-family="'Segoe UI','Helvetica Neue',Arial,sans-serif" font-size="12.5" fill="#036475">transcript (ASR)</text></g><g><rect x="151" y="264" width="120" height="26" rx="7" fill="#dcf5f9" stroke="#9be2ee" stroke-width="1"/><text x="211.0" y="281.0" text-anchor="middle" font-family="'Segoe UI','Helvetica Neue',Arial,sans-serif" font-size="12.5" fill="#036475">speech present?</text></g><g><rect x="279" y="264" width="107" height="26" rx="7" fill="#dcf5f9" stroke="#9be2ee" stroke-width="1"/><text x="332.5" y="281.0" text-anchor="middle" font-family="'Segoe UI','Helvetica Neue',Arial,sans-serif" font-size="12.5" fill="#036475">voice arousal</text></g><g><rect x="16" y="298" width="120" height="26" rx="7" fill="#dcf5f9" stroke="#9be2ee" stroke-width="1"/><text x="76.0" y="315.0" text-anchor="middle" font-family="'Segoe UI','Helvetica Neue',Arial,sans-serif" font-size="12.5" fill="#036475">voice dominance</text></g><g><rect x="144" y="298" width="107" height="26" rx="7" fill="#dcf5f9" stroke="#9be2ee" stroke-width="1"/><text x="197.5" y="315.0" text-anchor="middle" font-family="'Segoe UI','Helvetica Neue',Arial,sans-serif" font-size="12.5" fill="#036475">voice valence</text></g><g><rect x="259" y="298" width="107" height="26" rx="7" fill="#dcf5f9" stroke="#9be2ee" stroke-width="1"/><text x="312.5" y="315.0" text-anchor="middle" font-family="'Segoe UI','Helvetica Neue',Arial,sans-serif" font-size="12.5" fill="#036475">speaking rate</text></g><text x="16" y="352" font-family="'Segoe UI','Helvetica Neue',Arial,sans-serif" font-size="11.5" font-weight="700" letter-spacing="0.6" fill="#059bb4">AUDIO EVENTS / SCENES</text><g><rect x="16" y="364" width="188" height="26" rx="7" fill="#dcf5f9" stroke="#9be2ee" stroke-width="1"/><text x="110.0" y="381.0" text-anchor="middle" font-family="'Segoe UI','Helvetica Neue',Arial,sans-serif" font-size="12.5" fill="#036475">AudioSet sound tags (527)</text></g><g><rect x="212" y="364" width="181" height="26" rx="7" fill="#dcf5f9" stroke="#9be2ee" stroke-width="1"/><text x="302.5" y="381.0" text-anchor="middle" font-family="'Segoe UI','Helvetica Neue',Arial,sans-serif" font-size="12.5" fill="#036475">top sound category (527)</text></g><g><rect x="16" y="398" width="194" height="26" rx="7" fill="#dcf5f9" stroke="#9be2ee" stroke-width="1"/><text x="113.0" y="415.0" text-anchor="middle" font-family="'Segoe UI','Helvetica Neue',Arial,sans-serif" font-size="12.5" fill="#036475">CLAP audio embedding (512)</text></g><g><rect x="218" y="398" width="167" height="26" rx="7" fill="#dcf5f9" stroke="#9be2ee" stroke-width="1"/><text x="301.5" y="415.0" text-anchor="middle" font-family="'Segoe UI','Helvetica Neue',Arial,sans-serif" font-size="12.5" fill="#036475">CLAP sound probes (12)</text></g></g>
<g transform="translate(998,644)"><rect x="0" y="0" width="452" height="352" rx="16" fill="#ffffff" stroke="#e5e7eb" stroke-width="1"/><path d="M0,58 V16 Q0,0 16,0 H436 Q452,0 452,16 V58 Z" fill="#ef4444"/><text x="16" y="26" font-family="'Segoe UI','Helvetica Neue',Arial,sans-serif" font-size="18" font-weight="700" fill="#ffffff">AFFECT</text><text x="436" y="26" text-anchor="end" font-family="'Segoe UI','Helvetica Neue',Arial,sans-serif" font-size="13" font-weight="600" fill="#ffffff" opacity="0.92">14 channels</text><text x="16" y="44" font-family="'Segoe UI','Helvetica Neue',Arial,sans-serif" font-size="12.5" fill="#ffffff" opacity="0.9">Depicted emotion across channels</text><text x="16" y="84" font-family="'Segoe UI','Helvetica Neue',Arial,sans-serif" font-size="11.5" font-weight="700" letter-spacing="0.6" fill="#cb3a3a">DEPICTED AFFECT</text><g><rect x="16" y="96" width="154" height="26" rx="7" fill="#fde5e5" stroke="#f9b4b4" stroke-width="1"/><text x="93.0" y="113.0" text-anchor="middle" font-family="'Segoe UI','Helvetica Neue',Arial,sans-serif" font-size="12.5" fill="#832525">EmoNet emotions (20)</text></g><g><rect x="178" y="96" width="174" height="26" rx="7" fill="#fde5e5" stroke="#f9b4b4" stroke-width="1"/><text x="265.0" y="113.0" text-anchor="middle" font-family="'Segoe UI','Helvetica Neue',Arial,sans-serif" font-size="12.5" fill="#832525">EmoNet top emotion (20)</text></g><g><rect x="16" y="130" width="100" height="26" rx="7" fill="#fde5e5" stroke="#f9b4b4" stroke-width="1"/><text x="66.0" y="147.0" text-anchor="middle" font-family="'Segoe UI','Helvetica Neue',Arial,sans-serif" font-size="12.5" fill="#832525">face arousal</text></g><g><rect x="124" y="130" width="147" height="26" rx="7" fill="#fde5e5" stroke="#f9b4b4" stroke-width="1"/><text x="197.5" y="147.0" text-anchor="middle" font-family="'Segoe UI','Helvetica Neue',Arial,sans-serif" font-size="12.5" fill="#832525">facial emotions (8)</text></g><g><rect x="16" y="164" width="167" height="26" rx="7" fill="#fde5e5" stroke="#f9b4b4" stroke-width="1"/><text x="99.5" y="181.0" text-anchor="middle" font-family="'Segoe UI','Helvetica Neue',Arial,sans-serif" font-size="12.5" fill="#832525">top facial emotion (8)</text></g><g><rect x="191" y="164" width="100" height="26" rx="7" fill="#fde5e5" stroke="#f9b4b4" stroke-width="1"/><text x="241.0" y="181.0" text-anchor="middle" font-family="'Segoe UI','Helvetica Neue',Arial,sans-serif" font-size="12.5" fill="#832525">face valence</text></g><g><rect x="16" y="198" width="141" height="26" rx="7" fill="#fde5e5" stroke="#f9b4b4" stroke-width="1"/><text x="86.5" y="215.0" text-anchor="middle" font-family="'Segoe UI','Helvetica Neue',Arial,sans-serif" font-size="12.5" fill="#832525">text emotions (28)</text></g><g><rect x="165" y="198" width="161" height="26" rx="7" fill="#fde5e5" stroke="#f9b4b4" stroke-width="1"/><text x="245.5" y="215.0" text-anchor="middle" font-family="'Segoe UI','Helvetica Neue',Arial,sans-serif" font-size="12.5" fill="#832525">top text emotion (28)</text></g><g><rect x="16" y="232" width="141" height="26" rx="7" fill="#fde5e5" stroke="#f9b4b4" stroke-width="1"/><text x="86.5" y="249.0" text-anchor="middle" font-family="'Segoe UI','Helvetica Neue',Arial,sans-serif" font-size="12.5" fill="#832525">text sentiment (3)</text></g><g><rect x="165" y="232" width="141" height="26" rx="7" fill="#fde5e5" stroke="#f9b4b4" stroke-width="1"/><text x="235.5" y="249.0" text-anchor="middle" font-family="'Segoe UI','Helvetica Neue',Arial,sans-serif" font-size="12.5" fill="#832525">sentiment polarity</text></g><g><rect x="16" y="266" width="134" height="26" rx="7" fill="#fde5e5" stroke="#f9b4b4" stroke-width="1"/><text x="83.0" y="283.0" text-anchor="middle" font-family="'Segoe UI','Helvetica Neue',Arial,sans-serif" font-size="12.5" fill="#832525">top sentiment (3)</text></g><g><rect x="158" y="266" width="147" height="26" rx="7" fill="#fde5e5" stroke="#f9b4b4" stroke-width="1"/><text x="231.5" y="283.0" text-anchor="middle" font-family="'Segoe UI','Helvetica Neue',Arial,sans-serif" font-size="12.5" fill="#832525">scene arousal (VLM)</text></g><g><rect x="16" y="300" width="147" height="26" rx="7" fill="#fde5e5" stroke="#f9b4b4" stroke-width="1"/><text x="89.5" y="317.0" text-anchor="middle" font-family="'Segoe UI','Helvetica Neue',Arial,sans-serif" font-size="12.5" fill="#832525">scene emotion (VLM)</text></g><g><rect x="171" y="300" width="147" height="26" rx="7" fill="#fde5e5" stroke="#f9b4b4" stroke-width="1"/><text x="244.5" y="317.0" text-anchor="middle" font-family="'Segoe UI','Helvetica Neue',Arial,sans-serif" font-size="12.5" fill="#832525">scene valence (VLM)</text></g></g>
<g transform="translate(520,744)"><rect x="0" y="0" width="452" height="158" rx="16" fill="#ffffff" stroke="#e5e7eb" stroke-width="1"/><path d="M0,58 V16 Q0,0 16,0 H436 Q452,0 452,16 V58 Z" fill="#ec4899"/><text x="16" y="26" font-family="'Segoe UI','Helvetica Neue',Arial,sans-serif" font-size="18" font-weight="700" fill="#ffffff">SOCIAL</text><text x="436" y="26" text-anchor="end" font-family="'Segoe UI','Helvetica Neue',Arial,sans-serif" font-size="13" font-weight="600" fill="#ffffff" opacity="0.92">4 channels</text><text x="16" y="44" font-family="'Segoe UI','Helvetica Neue',Arial,sans-serif" font-size="12.5" fill="#ffffff" opacity="0.9">Who is present and how they relate</text><g><rect x="16" y="72" width="127" height="26" rx="7" fill="#fce5f1" stroke="#f7b6d6" stroke-width="1"/><text x="79.5" y="89.0" text-anchor="middle" font-family="'Segoe UI','Helvetica Neue',Arial,sans-serif" font-size="12.5" fill="#822854">social dominance</text></g><g><rect x="151" y="72" width="127" height="26" rx="7" fill="#fce5f1" stroke="#f7b6d6" stroke-width="1"/><text x="214.5" y="89.0" text-anchor="middle" font-family="'Segoe UI','Helvetica Neue',Arial,sans-serif" font-size="12.5" fill="#822854">interaction type</text></g><g><rect x="16" y="106" width="161" height="26" rx="7" fill="#fce5f1" stroke="#f7b6d6" stroke-width="1"/><text x="96.5" y="123.0" text-anchor="middle" font-family="'Segoe UI','Helvetica Neue',Arial,sans-serif" font-size="12.5" fill="#822854">closest-pair distance</text></g><g><rect x="185" y="106" width="94" height="26" rx="7" fill="#fce5f1" stroke="#f7b6d6" stroke-width="1"/><text x="232.0" y="123.0" text-anchor="middle" font-family="'Segoe UI','Helvetica Neue',Arial,sans-serif" font-size="12.5" fill="#822854">agent count</text></g></g>
<g transform="translate(520,928)"><rect x="0" y="0" width="452" height="158" rx="16" fill="#ffffff" stroke="#e5e7eb" stroke-width="1"/><path d="M0,58 V16 Q0,0 16,0 H436 Q452,0 452,16 V58 Z" fill="#10b981"/><text x="16" y="26" font-family="'Segoe UI','Helvetica Neue',Arial,sans-serif" font-size="18" font-weight="700" fill="#ffffff">SITUATION</text><text x="436" y="26" text-anchor="end" font-family="'Segoe UI','Helvetica Neue',Arial,sans-serif" font-size="13" font-weight="600" fill="#ffffff" opacity="0.92">5 channels</text><text x="16" y="44" font-family="'Segoe UI','Helvetica Neue',Arial,sans-serif" font-size="12.5" fill="#ffffff" opacity="0.9">Where/when; event structure</text><g><rect x="16" y="72" width="114" height="26" rx="7" fill="#def5ed" stroke="#9fe3cd" stroke-width="1"/><text x="73.0" y="89.0" text-anchor="middle" font-family="'Segoe UI','Helvetica Neue',Arial,sans-serif" font-size="12.5" fill="#096647">event boundary</text></g><g><rect x="138" y="72" width="100" height="26" rx="7" fill="#def5ed" stroke="#9fe3cd" stroke-width="1"/><text x="188.0" y="89.0" text-anchor="middle" font-family="'Segoe UI','Helvetica Neue',Arial,sans-serif" font-size="12.5" fill="#096647">event number</text></g><g><rect x="246" y="72" width="127" height="26" rx="7" fill="#def5ed" stroke="#9fe3cd" stroke-width="1"/><text x="309.5" y="89.0" text-anchor="middle" font-family="'Segoe UI','Helvetica Neue',Arial,sans-serif" font-size="12.5" fill="#096647">indoor / outdoor</text></g><g><rect x="16" y="106" width="134" height="26" rx="7" fill="#def5ed" stroke="#9fe3cd" stroke-width="1"/><text x="83.0" y="123.0" text-anchor="middle" font-family="'Segoe UI','Helvetica Neue',Arial,sans-serif" font-size="12.5" fill="#096647">scene description</text></g><g><rect x="158" y="106" width="67" height="26" rx="7" fill="#def5ed" stroke="#9fe3cd" stroke-width="1"/><text x="191.5" y="123.0" text-anchor="middle" font-family="'Segoe UI','Helvetica Neue',Arial,sans-serif" font-size="12.5" fill="#096647">setting</text></g></g>
</svg>