<svg xmlns="http://www.w3.org/2000/svg" viewBox="0 0 1492 1000" width="1492" height="1000" font-family="'Segoe UI','Helvetica Neue',Arial,sans-serif">
<rect x="0" y="0" width="1492" height="1000" fill="#f8fafc"/>
<text x="42" y="66" font-family="'Segoe UI','Helvetica Neue',Arial,sans-serif" font-size="30" font-weight="800" fill="#0f172a">Narrative Feature Annotation Map</text>
<text x="42" y="98" font-family="'Segoe UI','Helvetica Neue',Arial,sans-serif" font-size="15.5" fill="#475569">95 computational annotation channels across six feature classes, on a shared 1&#8202;Hz time grid.</text>
<text x="42" y="122" font-family="'Segoe UI','Helvetica Neue',Arial,sans-serif" font-size="12.5" fill="#94a3b8">Each chip is one channel (a value series + provenance). Channels that do not apply to a stimulus are stored as explicit nulls. Generated from schema/channel_template.json.</text>
<g transform="translate(42,168)"><rect x="0" y="0" width="452" height="682" rx="16" fill="#ffffff" stroke="#e5e7eb" stroke-width="1"/><path d="M0,58 V16 Q0,0 16,0 H436 Q452,0 452,16 V58 Z" fill="#6366f1"/><text x="16" y="26" font-family="'Segoe UI','Helvetica Neue',Arial,sans-serif" font-size="18" font-weight="700" fill="#ffffff">VISUAL</text><text x="436" y="26" text-anchor="end" font-family="'Segoe UI','Helvetica Neue',Arial,sans-serif" font-size="13" font-weight="600" fill="#ffffff" opacity="0.92">37 channels</text><text x="16" y="44" font-family="'Segoe UI','Helvetica Neue',Arial,sans-serif" font-size="12.5" fill="#ffffff" opacity="0.9">What the frame looks like</text><text x="16" y="84" font-family="'Segoe UI','Helvetica Neue',Arial,sans-serif" font-size="11.5" font-weight="700" letter-spacing="0.6" fill="#5457cd">LOW-LEVEL STATIC</text><g><rect x="16" y="96" width="60" height="26" rx="7" fill="#e9eafd" stroke="#c1c2f9" stroke-width="1"/><text x="46.0" y="113.0" text-anchor="middle" font-family="'Segoe UI','Helvetica Neue',Arial,sans-serif" font-size="12.5" fill="#363885">b mean</text></g><g><rect x="84" y="96" width="100" height="26" rx="7" fill="#e9eafd" stroke="#c1c2f9" stroke-width="1"/><text x="134.0" y="113.0" text-anchor="middle" font-family="'Segoe UI','Helvetica Neue',Arial,sans-serif" font-size="12.5" fill="#363885">colorfulness</text></g><g><rect x="192" y="96" width="100" height="26" rx="7" fill="#e9eafd" stroke="#c1c2f9" stroke-width="1"/><text x="242.0" y="113.0" text-anchor="middle" font-family="'Segoe UI','Helvetica Neue',Arial,sans-serif" font-size="12.5" fill="#363885">edge density</text></g><g><rect x="300" y="96" width="67" height="26" rx="7" fill="#e9eafd" stroke="#c1c2f9" stroke-width="1"/><text x="333.5" y="113.0" text-anchor="middle" font-family="'Segoe UI','Helvetica Neue',Arial,sans-serif" font-size="12.5" fill="#363885">entropy</text></g><g><rect x="16" y="130" width="80" height="26" rx="7" fill="#e9eafd" stroke="#c1c2f9" stroke-width="1"/><text x="56.0" y="147.0" text-anchor="middle" font-family="'Segoe UI','Helvetica Neue',Arial,sans-serif" font-size="12.5" fill="#363885">fft slope</text></g><g><rect x="104" y="130" width="60" height="26" rx="7" fill="#e9eafd" stroke="#c1c2f9" stroke-width="1"/><text x="134.0" y="147.0" text-anchor="middle" font-family="'Segoe UI','Helvetica Neue',Arial,sans-serif" font-size="12.5" fill="#363885">g mean</text></g><g><rect x="172" y="130" width="74" height="26" rx="7" fill="#e9eafd" stroke="#c1c2f9" stroke-width="1"/><text x="209.0" y="147.0" text-anchor="middle" font-family="'Segoe UI','Helvetica Neue',Arial,sans-serif" font-size="12.5" fill="#363885">hue mean</text></g><g><rect x="254" y="130" width="80" height="26" rx="7" fill="#e9eafd" stroke="#c1c2f9" stroke-width="1"/><text x="294.0" y="147.0" text-anchor="middle" font-family="'Segoe UI','Helvetica Neue',Arial,sans-serif" font-size="12.5" fill="#363885">luminance</text></g><g><rect x="342" y="130" width="60" height="26" rx="7" fill="#e9eafd" stroke="#c1c2f9" stroke-width="1"/><text x="372.0" y="147.0" text-anchor="middle" font-family="'Segoe UI','Helvetica Neue',Arial,sans-serif" font-size="12.5" fill="#363885">r mean</text></g><g><rect x="16" y="164" width="100" height="26" rx="7" fill="#e9eafd" stroke="#c1c2f9" stroke-width="1"/><text x="66.0" y="181.0" text-anchor="middle" font-family="'Segoe UI','Helvetica Neue',Arial,sans-serif" font-size="12.5" fill="#363885">rms contrast</text></g><g><rect x="124" y="164" width="74" height="26" rx="7" fill="#e9eafd" stroke="#c1c2f9" stroke-width="1"/><text x="161.0" y="181.0" text-anchor="middle" font-family="'Segoe UI','Helvetica Neue',Arial,sans-serif" font-size="12.5" fill="#363885">sat mean</text></g><g><rect x="206" y="164" width="74" height="26" rx="7" fill="#e9eafd" stroke="#c1c2f9" stroke-width="1"/><text x="243.0" y="181.0" text-anchor="middle" font-family="'Segoe UI','Helvetica Neue',Arial,sans-serif" font-size="12.5" fill="#363885">val mean</text></g><text x="16" y="218" font-family="'Segoe UI','Helvetica Neue',Arial,sans-serif" font-size="11.5" font-weight="700" letter-spacing="0.6" fill="#5457cd">SALIENCY / DEPTH</text><g><rect x="16" y="230" width="107" height="26" rx="7" fill="#e9eafd" stroke="#c1c2f9" stroke-width="1"/><text x="69.5" y="247.0" text-anchor="middle" font-family="'Segoe UI','Helvetica Neue',Arial,sans-serif" font-size="12.5" fill="#363885">depth entropy</text></g><g><rect x="131" y="230" width="87" height="26" rx="7" fill="#e9eafd" stroke="#c1c2f9" stroke-width="1"/><text x="174.5" y="247.0" text-anchor="middle" font-family="'Segoe UI','Helvetica Neue',Arial,sans-serif" font-size="12.5" fill="#363885">depth mean</text></g><g><rect x="226" y="230" width="94" height="26" rx="7" fill="#e9eafd" stroke="#c1c2f9" stroke-width="1"/><text x="273.0" y="247.0" text-anchor="middle" font-family="'Segoe UI','Helvetica Neue',Arial,sans-serif" font-size="12.5" fill="#363885">depth range</text></g><g><rect x="16" y="264" width="120" height="26" rx="7" fill="#e9eafd" stroke="#c1c2f9" stroke-width="1"/><text x="76.0" y="281.0" text-anchor="middle" font-family="'Segoe UI','Helvetica Neue',Arial,sans-serif" font-size="12.5" fill="#363885">foreground frac</text></g><g><rect x="144" y="264" width="127" height="26" rx="7" fill="#e9eafd" stroke="#c1c2f9" stroke-width="1"/><text x="207.5" y="281.0" text-anchor="middle" font-family="'Segoe UI','Helvetica Neue',Arial,sans-serif" font-size="12.5" fill="#363885">saliency entropy</text></g><g><rect x="279" y="264" width="107" height="26" rx="7" fill="#e9eafd" stroke="#c1c2f9" stroke-width="1"/><text x="332.5" y="281.0" text-anchor="middle" font-family="'Segoe UI','Helvetica Neue',Arial,sans-serif" font-size="12.5" fill="#363885">saliency mean</text></g><g><rect x="16" y="298" width="107" height="26" rx="7" fill="#e9eafd" stroke="#c1c2f9" stroke-width="1"/><text x="69.5" y="315.0" text-anchor="middle" font-family="'Segoe UI','Helvetica Neue',Arial,sans-serif" font-size="12.5" fill="#363885">saliency peak</text></g><g><rect x="131" y="298" width="134" height="26" rx="7" fill="#e9eafd" stroke="#c1c2f9" stroke-width="1"/><text x="198.0" y="315.0" text-anchor="middle" font-family="'Segoe UI','Helvetica Neue',Arial,sans-serif" font-size="12.5" fill="#363885">salient area frac</text></g><text x="16" y="352" font-family="'Segoe UI','Helvetica Neue',Arial,sans-serif" font-size="11.5" font-weight="700" letter-spacing="0.6" fill="#5457cd">FACES / BODIES / GAZE</text><g><rect x="16" y="364" width="107" height="26" rx="7" fill="#e9eafd" stroke="#c1c2f9" stroke-width="1"/><text x="69.5" y="381.0" text-anchor="middle" font-family="'Segoe UI','Helvetica Neue',Arial,sans-serif" font-size="12.5" fill="#363885">face det prob</text></g><g><rect x="131" y="364" width="107" height="26" rx="7" fill="#e9eafd" stroke="#c1c2f9" stroke-width="1"/><text x="184.5" y="381.0" text-anchor="middle" font-family="'Segoe UI','Helvetica Neue',Arial,sans-serif" font-size="12.5" fill="#363885">faces present</text></g><g><rect x="246" y="364" width="107" height="26" rx="7" fill="#e9eafd" stroke="#c1c2f9" stroke-width="1"/><text x="299.5" y="381.0" text-anchor="middle" font-family="'Segoe UI','Helvetica Neue',Arial,sans-serif" font-size="12.5" fill="#363885">max face frac</text></g><g><rect x="16" y="398" width="107" height="26" rx="7" fill="#e9eafd" stroke="#c1c2f9" stroke-width="1"/><text x="69.5" y="415.0" text-anchor="middle" font-family="'Segoe UI','Helvetica Neue',Arial,sans-serif" font-size="12.5" fill="#363885">mean kp score</text></g><g><rect x="131" y="398" width="67" height="26" rx="7" fill="#e9eafd" stroke="#c1c2f9" stroke-width="1"/><text x="164.5" y="415.0" text-anchor="middle" font-family="'Segoe UI','Helvetica Neue',Arial,sans-serif" font-size="12.5" fill="#363885">n faces</text></g><g><rect x="206" y="398" width="80" height="26" rx="7" fill="#e9eafd" stroke="#c1c2f9" stroke-width="1"/><text x="246.0" y="415.0" text-anchor="middle" font-family="'Segoe UI','Helvetica Neue',Arial,sans-serif" font-size="12.5" fill="#363885">n persons</text></g><g><rect x="294" y="398" width="100" height="26" rx="7" fill="#e9eafd" stroke="#c1c2f9" stroke-width="1"/><text x="344.0" y="415.0" text-anchor="middle" font-family="'Segoe UI','Helvetica Neue',Arial,sans-serif" font-size="12.5" fill="#363885">pose present</text></g><text x="16" y="452" font-family="'Segoe UI','Helvetica Neue',Arial,sans-serif" font-size="11.5" font-weight="700" letter-spacing="0.6" fill="#5457cd">MOTION</text><g><rect x="16" y="464" width="107" height="26" rx="7" fill="#e9eafd" stroke="#c1c2f9" stroke-width="1"/><text x="69.5" y="481.0" text-anchor="middle" font-family="'Segoe UI','Helvetica Neue',Arial,sans-serif" font-size="12.5" fill="#363885">camera motion</text></g><g><rect x="131" y="464" width="46" height="26" rx="7" fill="#e9eafd" stroke="#c1c2f9" stroke-width="1"/><text x="154.0" y="481.0" text-anchor="middle" font-family="'Segoe UI','Helvetica Neue',Arial,sans-serif" font-size="12.5" fill="#363885">cut</text></g><g><rect x="185" y="464" width="114" height="26" rx="7" fill="#e9eafd" stroke="#c1c2f9" stroke-width="1"/><text x="242.0" y="481.0" text-anchor="middle" font-family="'Segoe UI','Helvetica Neue',Arial,sans-serif" font-size="12.5" fill="#363885">flow magnitude</text></g><g><rect x="307" y="464" width="120" height="26" rx="7" fill="#e9eafd" stroke="#c1c2f9" stroke-width="1"/><text x="367.0" y="481.0" text-anchor="middle" font-family="'Segoe UI','Helvetica Neue',Arial,sans-serif" font-size="12.5" fill="#363885">residual motion</text></g><g><rect x="16" y="498" width="87" height="26" rx="7" fill="#e9eafd" stroke="#c1c2f9" stroke-width="1"/><text x="59.5" y="515.0" text-anchor="middle" font-family="'Segoe UI','Helvetica Neue',Arial,sans-serif" font-size="12.5" fill="#363885">shot index</text></g><text x="16" y="552" font-family="'Segoe UI','Helvetica Neue',Arial,sans-serif" font-size="11.5" font-weight="700" letter-spacing="0.6" fill="#5457cd">HIGH-LEVEL SEMANTICS</text><g><rect x="16" y="564" width="114" height="26" rx="7" fill="#e9eafd" stroke="#c1c2f9" stroke-width="1"/><text x="73.0" y="581.0" text-anchor="middle" font-family="'Segoe UI','Helvetica Neue',Arial,sans-serif" font-size="12.5" fill="#363885">dino embedding</text></g><g><rect x="138" y="564" width="127" height="26" rx="7" fill="#e9eafd" stroke="#c1c2f9" stroke-width="1"/><text x="201.5" y="581.0" text-anchor="middle" font-family="'Segoe UI','Helvetica Neue',Arial,sans-serif" font-size="12.5" fill="#363885">siglip embedding</text></g><g><rect x="273" y="564" width="100" height="26" rx="7" fill="#e9eafd" stroke="#c1c2f9" stroke-width="1"/><text x="323.0" y="581.0" text-anchor="middle" font-family="'Segoe UI','Helvetica Neue',Arial,sans-serif" font-size="12.5" fill="#363885">siglip probe</text></g><text x="16" y="618" font-family="'Segoe UI','Helvetica Neue',Arial,sans-serif" font-size="11.5" font-weight="700" letter-spacing="0.6" fill="#5457cd">ACTION</text><g><rect x="16" y="630" width="134" height="26" rx="7" fill="#e9eafd" stroke="#c1c2f9" stroke-width="1"/><text x="83.0" y="647.0" text-anchor="middle" font-family="'Segoe UI','Helvetica Neue',Arial,sans-serif" font-size="12.5" fill="#363885">action posteriors</text></g><g><rect x="158" y="630" width="87" height="26" rx="7" fill="#e9eafd" stroke="#c1c2f9" stroke-width="1"/><text x="201.5" y="647.0" text-anchor="middle" font-family="'Segoe UI','Helvetica Neue',Arial,sans-serif" font-size="12.5" fill="#363885">action top</text></g></g>
<g transform="translate(520,168)"><rect x="0" y="0" width="452" height="416" rx="16" fill="#ffffff" stroke="#e5e7eb" stroke-width="1"/><path d="M0,58 V16 Q0,0 16,0 H436 Q452,0 452,16 V58 Z" fill="#06b6d4"/><text x="16" y="26" font-family="'Segoe UI','Helvetica Neue',Arial,sans-serif" font-size="18" font-weight="700" fill="#ffffff">AUDIO</text><text x="436" y="26" text-anchor="end" font-family="'Segoe UI','Helvetica Neue',Arial,sans-serif" font-size="13" font-weight="600" fill="#ffffff" opacity="0.92">21 channels</text><text x="16" y="44" font-family="'Segoe UI','Helvetica Neue',Arial,sans-serif" font-size="12.5" fill="#ffffff" opacity="0.9">What the soundtrack sounds like</text><text x="16" y="84" font-family="'Segoe UI','Helvetica Neue',Arial,sans-serif" font-size="11.5" font-weight="700" letter-spacing="0.6" fill="#059bb4">LOW-LEVEL ACOUSTICS</text><g><rect x="16" y="96" width="60" height="26" rx="7" fill="#dcf5f9" stroke="#9be2ee" stroke-width="1"/><text x="46.0" y="113.0" text-anchor="middle" font-family="'Segoe UI','Helvetica Neue',Arial,sans-serif" font-size="12.5" fill="#036475">chroma</text></g><g><rect x="84" y="96" width="46" height="26" rx="7" fill="#dcf5f9" stroke="#9be2ee" stroke-width="1"/><text x="107.0" y="113.0" text-anchor="middle" font-family="'Segoe UI','Helvetica Neue',Arial,sans-serif" font-size="12.5" fill="#036475">f0</text></g><g><rect x="138" y="96" width="47" height="26" rx="7" fill="#dcf5f9" stroke="#9be2ee" stroke-width="1"/><text x="161.5" y="113.0" text-anchor="middle" font-family="'Segoe UI','Helvetica Neue',Arial,sans-serif" font-size="12.5" fill="#036475">mfcc</text></g><g><rect x="193" y="96" width="114" height="26" rx="7" fill="#dcf5f9" stroke="#9be2ee" stroke-width="1"/><text x="250.0" y="113.0" text-anchor="middle" font-family="'Segoe UI','Helvetica Neue',Arial,sans-serif" font-size="12.5" fill="#036475">onset strength</text></g><g><rect x="315" y="96" width="46" height="26" rx="7" fill="#dcf5f9" stroke="#9be2ee" stroke-width="1"/><text x="338.0" y="113.0" text-anchor="middle" font-family="'Segoe UI','Helvetica Neue',Arial,sans-serif" font-size="12.5" fill="#036475">rms</text></g><g><rect x="16" y="130" width="141" height="26" rx="7" fill="#dcf5f9" stroke="#9be2ee" stroke-width="1"/><text x="86.5" y="147.0" text-anchor="middle" font-family="'Segoe UI','Helvetica Neue',Arial,sans-serif" font-size="12.5" fill="#036475">spectral bandwidth</text></g><g><rect x="165" y="130" width="134" height="26" rx="7" fill="#dcf5f9" stroke="#9be2ee" stroke-width="1"/><text x="232.0" y="147.0" text-anchor="middle" font-family="'Segoe UI','Helvetica Neue',Arial,sans-serif" font-size="12.5" fill="#036475">spectral centroid</text></g><g><rect x="16" y="164" width="134" height="26" rx="7" fill="#dcf5f9" stroke="#9be2ee" stroke-width="1"/><text x="83.0" y="181.0" text-anchor="middle" font-family="'Segoe UI','Helvetica Neue',Arial,sans-serif" font-size="12.5" fill="#036475">spectral flatness</text></g><g><rect x="158" y="164" width="127" height="26" rx="7" fill="#dcf5f9" stroke="#9be2ee" stroke-width="1"/><text x="221.5" y="181.0" text-anchor="middle" font-family="'Segoe UI','Helvetica Neue',Arial,sans-serif" font-size="12.5" fill="#036475">spectral rolloff</text></g><g><rect x="293" y="164" width="54" height="26" rx="7" fill="#dcf5f9" stroke="#9be2ee" stroke-width="1"/><text x="320.0" y="181.0" text-anchor="middle" font-family="'Segoe UI','Helvetica Neue',Arial,sans-serif" font-size="12.5" fill="#036475">tempo</text></g><g><rect x="355" y="164" width="46" height="26" rx="7" fill="#dcf5f9" stroke="#9be2ee" stroke-width="1"/><text x="378.0" y="181.0" text-anchor="middle" font-family="'Segoe UI','Helvetica Neue',Arial,sans-serif" font-size="12.5" fill="#036475">zcr</text></g><text x="16" y="218" font-family="'Segoe UI','Helvetica Neue',Arial,sans-serif" font-size="11.5" font-weight="700" letter-spacing="0.6" fill="#059bb4">SPEECH</text><g><rect x="16" y="230" width="74" height="26" rx="7" fill="#dcf5f9" stroke="#9be2ee" stroke-width="1"/><text x="53.0" y="247.0" text-anchor="middle" font-family="'Segoe UI','Helvetica Neue',Arial,sans-serif" font-size="12.5" fill="#036475">asr text</text></g><g><rect x="98" y="230" width="114" height="26" rx="7" fill="#dcf5f9" stroke="#9be2ee" stroke-width="1"/><text x="155.0" y="247.0" text-anchor="middle" font-family="'Segoe UI','Helvetica Neue',Arial,sans-serif" font-size="12.5" fill="#036475">speech present</text></g><g><rect x="220" y="230" width="107" height="26" rx="7" fill="#dcf5f9" stroke="#9be2ee" stroke-width="1"/><text x="273.5" y="247.0" text-anchor="middle" font-family="'Segoe UI','Helvetica Neue',Arial,sans-serif" font-size="12.5" fill="#036475">voice arousal</text></g><g><rect x="16" y="264" width="120" height="26" rx="7" fill="#dcf5f9" stroke="#9be2ee" stroke-width="1"/><text x="76.0" y="281.0" text-anchor="middle" font-family="'Segoe UI','Helvetica Neue',Arial,sans-serif" font-size="12.5" fill="#036475">voice dominance</text></g><g><rect x="144" y="264" width="107" height="26" rx="7" fill="#dcf5f9" stroke="#9be2ee" stroke-width="1"/><text x="197.5" y="281.0" text-anchor="middle" font-family="'Segoe UI','Helvetica Neue',Arial,sans-serif" font-size="12.5" fill="#036475">voice valence</text></g><g><rect x="259" y="264" width="80" height="26" rx="7" fill="#dcf5f9" stroke="#9be2ee" stroke-width="1"/><text x="299.0" y="281.0" text-anchor="middle" font-family="'Segoe UI','Helvetica Neue',Arial,sans-serif" font-size="12.5" fill="#036475">word rate</text></g><text x="16" y="318" font-family="'Segoe UI','Helvetica Neue',Arial,sans-serif" font-size="11.5" font-weight="700" letter-spacing="0.6" fill="#059bb4">AUDIO EVENTS / SCENES</text><g><rect x="16" y="330" width="107" height="26" rx="7" fill="#dcf5f9" stroke="#9be2ee" stroke-width="1"/><text x="69.5" y="347.0" text-anchor="middle" font-family="'Segoe UI','Helvetica Neue',Arial,sans-serif" font-size="12.5" fill="#036475">audioset tags</text></g><g><rect x="131" y="330" width="100" height="26" rx="7" fill="#dcf5f9" stroke="#9be2ee" stroke-width="1"/><text x="181.0" y="347.0" text-anchor="middle" font-family="'Segoe UI','Helvetica Neue',Arial,sans-serif" font-size="12.5" fill="#036475">audioset top</text></g><g><rect x="239" y="330" width="114" height="26" rx="7" fill="#dcf5f9" stroke="#9be2ee" stroke-width="1"/><text x="296.0" y="347.0" text-anchor="middle" font-family="'Segoe UI','Helvetica Neue',Arial,sans-serif" font-size="12.5" fill="#036475">clap embedding</text></g><g><rect x="16" y="364" width="87" height="26" rx="7" fill="#dcf5f9" stroke="#9be2ee" stroke-width="1"/><text x="59.5" y="381.0" text-anchor="middle" font-family="'Segoe UI','Helvetica Neue',Arial,sans-serif" font-size="12.5" fill="#036475">clap probe</text></g></g>
<g transform="translate(998,168)"><rect x="0" y="0" width="452" height="284" rx="16" fill="#ffffff" stroke="#e5e7eb" stroke-width="1"/><path d="M0,58 V16 Q0,0 16,0 H436 Q452,0 452,16 V58 Z" fill="#ef4444"/><text x="16" y="26" font-family="'Segoe UI','Helvetica Neue',Arial,sans-serif" font-size="18" font-weight="700" fill="#ffffff">AFFECT</text><text x="436" y="26" text-anchor="end" font-family="'Segoe UI','Helvetica Neue',Arial,sans-serif" font-size="13" font-weight="600" fill="#ffffff" opacity="0.92">14 channels</text><text x="16" y="44" font-family="'Segoe UI','Helvetica Neue',Arial,sans-serif" font-size="12.5" fill="#ffffff" opacity="0.9">Depicted emotion across channels</text><text x="16" y="84" font-family="'Segoe UI','Helvetica Neue',Arial,sans-serif" font-size="11.5" font-weight="700" letter-spacing="0.6" fill="#cb3a3a">DEPICTED AFFECT</text><g><rect x="16" y="96" width="60" height="26" rx="7" fill="#fde5e5" stroke="#f9b4b4" stroke-width="1"/><text x="46.0" y="113.0" text-anchor="middle" font-family="'Segoe UI','Helvetica Neue',Arial,sans-serif" font-size="12.5" fill="#832525">emonet</text></g><g><rect x="84" y="96" width="87" height="26" rx="7" fill="#fde5e5" stroke="#f9b4b4" stroke-width="1"/><text x="127.5" y="113.0" text-anchor="middle" font-family="'Segoe UI','Helvetica Neue',Arial,sans-serif" font-size="12.5" fill="#832525">emonet top</text></g><g><rect x="179" y="96" width="100" height="26" rx="7" fill="#fde5e5" stroke="#f9b4b4" stroke-width="1"/><text x="229.0" y="113.0" text-anchor="middle" font-family="'Segoe UI','Helvetica Neue',Arial,sans-serif" font-size="12.5" fill="#832525">face arousal</text></g><g><rect x="287" y="96" width="100" height="26" rx="7" fill="#fde5e5" stroke="#f9b4b4" stroke-width="1"/><text x="337.0" y="113.0" text-anchor="middle" font-family="'Segoe UI','Helvetica Neue',Arial,sans-serif" font-size="12.5" fill="#832525">face emotion</text></g><g><rect x="16" y="130" width="127" height="26" rx="7" fill="#fde5e5" stroke="#f9b4b4" stroke-width="1"/><text x="79.5" y="147.0" text-anchor="middle" font-family="'Segoe UI','Helvetica Neue',Arial,sans-serif" font-size="12.5" fill="#832525">face emotion top</text></g><g><rect x="151" y="130" width="100" height="26" rx="7" fill="#fde5e5" stroke="#f9b4b4" stroke-width="1"/><text x="201.0" y="147.0" text-anchor="middle" font-family="'Segoe UI','Helvetica Neue',Arial,sans-serif" font-size="12.5" fill="#832525">face valence</text></g><g><rect x="259" y="130" width="100" height="26" rx="7" fill="#fde5e5" stroke="#f9b4b4" stroke-width="1"/><text x="309.0" y="147.0" text-anchor="middle" font-family="'Segoe UI','Helvetica Neue',Arial,sans-serif" font-size="12.5" fill="#832525">text emotion</text></g><g><rect x="16" y="164" width="127" height="26" rx="7" fill="#fde5e5" stroke="#f9b4b4" stroke-width="1"/><text x="79.5" y="181.0" text-anchor="middle" font-family="'Segoe UI','Helvetica Neue',Arial,sans-serif" font-size="12.5" fill="#832525">text emotion top</text></g><g><rect x="151" y="164" width="114" height="26" rx="7" fill="#fde5e5" stroke="#f9b4b4" stroke-width="1"/><text x="208.0" y="181.0" text-anchor="middle" font-family="'Segoe UI','Helvetica Neue',Arial,sans-serif" font-size="12.5" fill="#832525">text sentiment</text></g><g><rect x="16" y="198" width="174" height="26" rx="7" fill="#fde5e5" stroke="#f9b4b4" stroke-width="1"/><text x="103.0" y="215.0" text-anchor="middle" font-family="'Segoe UI','Helvetica Neue',Arial,sans-serif" font-size="12.5" fill="#832525">text sentiment polarity</text></g><g><rect x="198" y="198" width="141" height="26" rx="7" fill="#fde5e5" stroke="#f9b4b4" stroke-width="1"/><text x="268.5" y="215.0" text-anchor="middle" font-family="'Segoe UI','Helvetica Neue',Arial,sans-serif" font-size="12.5" fill="#832525">text sentiment top</text></g><g><rect x="16" y="232" width="94" height="26" rx="7" fill="#fde5e5" stroke="#f9b4b4" stroke-width="1"/><text x="63.0" y="249.0" text-anchor="middle" font-family="'Segoe UI','Helvetica Neue',Arial,sans-serif" font-size="12.5" fill="#832525">vlm arousal</text></g><g><rect x="118" y="232" width="94" height="26" rx="7" fill="#fde5e5" stroke="#f9b4b4" stroke-width="1"/><text x="165.0" y="249.0" text-anchor="middle" font-family="'Segoe UI','Helvetica Neue',Arial,sans-serif" font-size="12.5" fill="#832525">vlm emotion</text></g><g><rect x="220" y="232" width="94" height="26" rx="7" fill="#fde5e5" stroke="#f9b4b4" stroke-width="1"/><text x="267.0" y="249.0" text-anchor="middle" font-family="'Segoe UI','Helvetica Neue',Arial,sans-serif" font-size="12.5" fill="#832525">vlm valence</text></g></g>
<g transform="translate(998,478)"><rect x="0" y="0" width="452" height="282" rx="16" fill="#ffffff" stroke="#e5e7eb" stroke-width="1"/><path d="M0,58 V16 Q0,0 16,0 H436 Q452,0 452,16 V58 Z" fill="#f59e0b"/><text x="16" y="26" font-family="'Segoe UI','Helvetica Neue',Arial,sans-serif" font-size="18" font-weight="700" fill="#ffffff">LANGUAGE</text><text x="436" y="26" text-anchor="end" font-family="'Segoe UI','Helvetica Neue',Arial,sans-serif" font-size="13" font-weight="600" fill="#ffffff" opacity="0.92">14 channels</text><text x="16" y="44" font-family="'Segoe UI','Helvetica Neue',Arial,sans-serif" font-size="12.5" fill="#ffffff" opacity="0.9">What is said (from the transcript)</text><text x="16" y="84" font-family="'Segoe UI','Helvetica Neue',Arial,sans-serif" font-size="11.5" font-weight="700" letter-spacing="0.6" fill="#d08609">LEXICAL</text><g><rect x="16" y="96" width="46" height="26" rx="7" fill="#fef1dd" stroke="#fbd89d" stroke-width="1"/><text x="39.0" y="113.0" text-anchor="middle" font-family="'Segoe UI','Helvetica Neue',Arial,sans-serif" font-size="12.5" fill="#875706">aoa</text></g><g><rect x="70" y="96" width="67" height="26" rx="7" fill="#fef1dd" stroke="#fbd89d" stroke-width="1"/><text x="103.5" y="113.0" text-anchor="middle" font-family="'Segoe UI','Helvetica Neue',Arial,sans-serif" font-size="12.5" fill="#875706">arousal</text></g><g><rect x="145" y="96" width="100" height="26" rx="7" fill="#fef1dd" stroke="#fbd89d" stroke-width="1"/><text x="195.0" y="113.0" text-anchor="middle" font-family="'Segoe UI','Helvetica Neue',Arial,sans-serif" font-size="12.5" fill="#875706">concreteness</text></g><g><rect x="253" y="96" width="80" height="26" rx="7" fill="#fef1dd" stroke="#fbd89d" stroke-width="1"/><text x="293.0" y="113.0" text-anchor="middle" font-family="'Segoe UI','Helvetica Neue',Arial,sans-serif" font-size="12.5" fill="#875706">dominance</text></g><g><rect x="341" y="96" width="67" height="26" rx="7" fill="#fef1dd" stroke="#fbd89d" stroke-width="1"/><text x="374.5" y="113.0" text-anchor="middle" font-family="'Segoe UI','Helvetica Neue',Arial,sans-serif" font-size="12.5" fill="#875706">entropy</text></g><g><rect x="16" y="130" width="80" height="26" rx="7" fill="#fef1dd" stroke="#fbd89d" stroke-width="1"/><text x="56.0" y="147.0" text-anchor="middle" font-family="'Segoe UI','Helvetica Neue',Arial,sans-serif" font-size="12.5" fill="#875706">freq zipf</text></g><g><rect x="104" y="130" width="80" height="26" rx="7" fill="#fef1dd" stroke="#fbd89d" stroke-width="1"/><text x="144.0" y="147.0" text-anchor="middle" font-family="'Segoe UI','Helvetica Neue',Arial,sans-serif" font-size="12.5" fill="#875706">surprisal</text></g><g><rect x="192" y="130" width="67" height="26" rx="7" fill="#fef1dd" stroke="#fbd89d" stroke-width="1"/><text x="225.5" y="147.0" text-anchor="middle" font-family="'Segoe UI','Helvetica Neue',Arial,sans-serif" font-size="12.5" fill="#875706">valence</text></g><g><rect x="267" y="130" width="94" height="26" rx="7" fill="#fef1dd" stroke="#fbd89d" stroke-width="1"/><text x="314.0" y="147.0" text-anchor="middle" font-family="'Segoe UI','Helvetica Neue',Arial,sans-serif" font-size="12.5" fill="#875706">word length</text></g><text x="16" y="184" font-family="'Segoe UI','Helvetica Neue',Arial,sans-serif" font-size="11.5" font-weight="700" letter-spacing="0.6" fill="#d08609">SYNTAX</text><g><rect x="16" y="196" width="100" height="26" rx="7" fill="#fef1dd" stroke="#fbd89d" stroke-width="1"/><text x="66.0" y="213.0" text-anchor="middle" font-family="'Segoe UI','Helvetica Neue',Arial,sans-serif" font-size="12.5" fill="#875706">content frac</text></g><g><rect x="124" y="196" width="134" height="26" rx="7" fill="#fef1dd" stroke="#fbd89d" stroke-width="1"/><text x="191.0" y="213.0" text-anchor="middle" font-family="'Segoe UI','Helvetica Neue',Arial,sans-serif" font-size="12.5" fill="#875706">mean dep distance</text></g><g><rect x="266" y="196" width="80" height="26" rx="7" fill="#fef1dd" stroke="#fbd89d" stroke-width="1"/><text x="306.0" y="213.0" text-anchor="middle" font-family="'Segoe UI','Helvetica Neue',Arial,sans-serif" font-size="12.5" fill="#875706">noun frac</text></g><g><rect x="16" y="230" width="87" height="26" rx="7" fill="#fef1dd" stroke="#fbd89d" stroke-width="1"/><text x="59.5" y="247.0" text-anchor="middle" font-family="'Segoe UI','Helvetica Neue',Arial,sans-serif" font-size="12.5" fill="#875706">tree depth</text></g><g><rect x="111" y="230" width="80" height="26" rx="7" fill="#fef1dd" stroke="#fbd89d" stroke-width="1"/><text x="151.0" y="247.0" text-anchor="middle" font-family="'Segoe UI','Helvetica Neue',Arial,sans-serif" font-size="12.5" fill="#875706">verb frac</text></g></g>
<g transform="translate(520,610)"><rect x="0" y="0" width="452" height="158" rx="16" fill="#ffffff" stroke="#e5e7eb" stroke-width="1"/><path d="M0,58 V16 Q0,0 16,0 H436 Q452,0 452,16 V58 Z" fill="#ec4899"/><text x="16" y="26" font-family="'Segoe UI','Helvetica Neue',Arial,sans-serif" font-size="18" font-weight="700" fill="#ffffff">SOCIAL</text><text x="436" y="26" text-anchor="end" font-family="'Segoe UI','Helvetica Neue',Arial,sans-serif" font-size="13" font-weight="600" fill="#ffffff" opacity="0.92">4 channels</text><text x="16" y="44" font-family="'Segoe UI','Helvetica Neue',Arial,sans-serif" font-size="12.5" fill="#ffffff" opacity="0.9">Who is present and how they relate</text><g><rect x="16" y="72" width="80" height="26" rx="7" fill="#fce5f1" stroke="#f7b6d6" stroke-width="1"/><text x="56.0" y="89.0" text-anchor="middle" font-family="'Segoe UI','Helvetica Neue',Arial,sans-serif" font-size="12.5" fill="#822854">dominance</text></g><g><rect x="104" y="72" width="127" height="26" rx="7" fill="#fce5f1" stroke="#f7b6d6" stroke-width="1"/><text x="167.5" y="89.0" text-anchor="middle" font-family="'Segoe UI','Helvetica Neue',Arial,sans-serif" font-size="12.5" fill="#822854">interaction type</text></g><g><rect x="239" y="72" width="134" height="26" rx="7" fill="#fce5f1" stroke="#f7b6d6" stroke-width="1"/><text x="306.0" y="89.0" text-anchor="middle" font-family="'Segoe UI','Helvetica Neue',Arial,sans-serif" font-size="12.5" fill="#822854">min pair distance</text></g><g><rect x="16" y="106" width="74" height="26" rx="7" fill="#fce5f1" stroke="#f7b6d6" stroke-width="1"/><text x="53.0" y="123.0" text-anchor="middle" font-family="'Segoe UI','Helvetica Neue',Arial,sans-serif" font-size="12.5" fill="#822854">n agents</text></g></g>
<g transform="translate(998,786)"><rect x="0" y="0" width="452" height="158" rx="16" fill="#ffffff" stroke="#e5e7eb" stroke-width="1"/><path d="M0,58 V16 Q0,0 16,0 H436 Q452,0 452,16 V58 Z" fill="#10b981"/><text x="16" y="26" font-family="'Segoe UI','Helvetica Neue',Arial,sans-serif" font-size="18" font-weight="700" fill="#ffffff">SITUATION</text><text x="436" y="26" text-anchor="end" font-family="'Segoe UI','Helvetica Neue',Arial,sans-serif" font-size="13" font-weight="600" fill="#ffffff" opacity="0.92">5 channels</text><text x="16" y="44" font-family="'Segoe UI','Helvetica Neue',Arial,sans-serif" font-size="12.5" fill="#ffffff" opacity="0.9">Where/when; event structure</text><g><rect x="16" y="72" width="114" height="26" rx="7" fill="#def5ed" stroke="#9fe3cd" stroke-width="1"/><text x="73.0" y="89.0" text-anchor="middle" font-family="'Segoe UI','Helvetica Neue',Arial,sans-serif" font-size="12.5" fill="#096647">event boundary</text></g><g><rect x="138" y="72" width="74" height="26" rx="7" fill="#def5ed" stroke="#9fe3cd" stroke-width="1"/><text x="175.0" y="89.0" text-anchor="middle" font-family="'Segoe UI','Helvetica Neue',Arial,sans-serif" font-size="12.5" fill="#096647">event id</text></g><g><rect x="220" y="72" width="114" height="26" rx="7" fill="#def5ed" stroke="#9fe3cd" stroke-width="1"/><text x="277.0" y="89.0" text-anchor="middle" font-family="'Segoe UI','Helvetica Neue',Arial,sans-serif" font-size="12.5" fill="#096647">indoor outdoor</text></g><g><rect x="16" y="106" width="134" height="26" rx="7" fill="#def5ed" stroke="#9fe3cd" stroke-width="1"/><text x="83.0" y="123.0" text-anchor="middle" font-family="'Segoe UI','Helvetica Neue',Arial,sans-serif" font-size="12.5" fill="#096647">scene description</text></g><g><rect x="158" y="106" width="67" height="26" rx="7" fill="#def5ed" stroke="#9fe3cd" stroke-width="1"/><text x="191.5" y="123.0" text-anchor="middle" font-family="'Segoe UI','Helvetica Neue',Arial,sans-serif" font-size="12.5" fill="#096647">setting</text></g></g>
</svg>